HIERARCHY
ROOT Hips #0
{
	OFFSET -42.198200 91.614723 -40.067841
	CHANNELS 6 Xposition Yposition Zposition Zrotation Yrotation Xrotation 
	JOINT LeftUpLeg #1
	{
		OFFSET 0.103456 1.857829 10.548506
		CHANNELS 3 Zrotation Yrotation Xrotation
		JOINT LeftLeg #2
		{
			OFFSET 43.499992 -0.000038 -0.000002
			CHANNELS 3 Zrotation Yrotation Xrotation
			JOINT LeftFoot #3
			{
				OFFSET 42.372192 0.000015 -0.000007
				CHANNELS 3 Zrotation Yrotation Xrotation
				JOINT LeftToe #4
				{
					OFFSET 17.299999 -0.000002 0.000003
					CHANNELS 3 Zrotation Yrotation Xrotation
					End Site #5
					{
						OFFSET 0.000000 0.000000 0.000000
					}
				}
			}
		}
	}
	JOINT RightUpLeg #6
	{
		OFFSET 0.103457 1.857829 -10.548503
		CHANNELS 3 Zrotation Yrotation Xrotation
		JOINT RightLeg #7
		{
			OFFSET 43.500042 -0.000027 0.000008
			CHANNELS 3 Zrotation Yrotation Xrotation
			JOINT RightFoot #8
			{
				OFFSET 42.372257 -0.000008 0.000014
				CHANNELS 3 Zrotation Yrotation Xrotation
				JOINT RightToe #9
				{
					OFFSET 17.299992 -0.000005 0.000004
					CHANNELS 3 Zrotation Yrotation Xrotation
					End Site #10
					{
						OFFSET 0.000000 0.000000 0.000000
					}
				}
			}
		}
	}
	JOINT Spine #11
	{
		OFFSET 6.901968 -2.603733 -0.000001
		CHANNELS 3 Zrotation Yrotation Xrotation
		JOINT Spine1 #12
		{
			OFFSET 12.588099 0.000002 0.000000
			CHANNELS 3 Zrotation Yrotation Xrotation
			JOINT Spine2 #13
			{
				OFFSET 12.343206 0.000000 -0.000001
				CHANNELS 3 Zrotation Yrotation Xrotation
				JOINT Neck #14
				{
					OFFSET 25.832886 -0.000004 0.000003
					CHANNELS 3 Zrotation Yrotation Xrotation
					JOINT Head #15
					{
						OFFSET 11.766620 0.000005 -0.000001
						CHANNELS 3 Zrotation Yrotation Xrotation
						End Site #16
						{
							OFFSET 0.000000 0.000000 0.000000
						}
					}
				}
				JOINT LeftShoulder #17
				{
					OFFSET 19.745899 -1.480370 6.000108
					CHANNELS 3 Zrotation Yrotation Xrotation
					JOINT LeftArm #18
					{
						OFFSET 11.284125 -0.000009 -0.000018
						CHANNELS 3 Zrotation Yrotation Xrotation
						JOINT LeftForeArm #19
						{
							OFFSET 33.000050 0.000004 0.000032
							CHANNELS 3 Zrotation Yrotation Xrotation
							JOINT LeftHand #20
							{
								OFFSET 25.200008 0.000015 0.000008
								CHANNELS 3 Zrotation Yrotation Xrotation
								End Site #21
								{
									OFFSET 0.000000 0.000000 0.000000
								}
							}
						}
					}
				}
				JOINT RightShoulder #22
				{
					OFFSET 19.746099 -1.480375 -6.000073
					CHANNELS 3 Zrotation Yrotation Xrotation
					JOINT RightArm #23
					{
						OFFSET 11.284138 -0.000015 -0.000012
						CHANNELS 3 Zrotation Yrotation Xrotation
						JOINT RightForeArm #24
						{
							OFFSET 33.000092 0.000017 0.000013
							CHANNELS 3 Zrotation Yrotation Xrotation
							JOINT RightHand #25
							{
								OFFSET 25.199780 0.000135 0.000422
								CHANNELS 3 Zrotation Yrotation Xrotation
								End Site #26
								{
									OFFSET 0.000000 0.000000 0.000000
								}
							}
						}
					}
				}
			}
		}
	}
}
MOTION
Frames: 8
Frame Time: 0.033333
-42.198200 91.614723 -40.067841 90.170347 -2.086049 85.392022 170.856526 -0.363297 168.197903 -22.836420 2.021979 -6.742188 84.710356 4.013207 -2.880859 21.454550 0.003082 -0.000002 171.034972 5.992200 -169.886585 -21.319295 -4.166972 3.013343 84.298919 -0.023303 9.810145 21.454558 -0.003123 -0.000020 5.766118 -0.153155 0.061496 1.507459 -0.304251 0.122335 1.189346 -0.303351 0.124202 10.441163 0.222989 -1.509924 -24.817228 -4.718812 0.514271 -75.852727 -83.355745 -106.532148 7.686574 24.469569 -21.835148 -58.556953 -27.048987 2.893453 4.518584 -14.680798 10.156247 -112.849137 88.407257 68.962132 7.963207 -23.947900 30.814760 -57.416913 14.705768 -2.028131 -4.092285 14.401766 -17.998197 
-42.167759 91.606430 -40.190849 90.170341 -2.100993 85.373724 170.764674 -0.349501 168.165937 -22.836413 2.018615 -6.736290 84.703887 4.013199 -2.833323 21.454555 0.003089 0.000001 170.961575 6.016099 -169.888088 -21.275177 -4.150740 2.994657 84.299001 -0.013780 9.793930 21.454558 -0.003105 -0.000017 5.766120 -0.153148 0.061486 1.501526 -0.304251 0.122344 1.183420 -0.303354 0.124199 10.453954 0.227104 -1.509924 -24.850759 -4.788270 0.542365 -75.824430 -83.355711 -106.560650 7.667455 24.459893 -21.880333 -58.565177 -27.052943 2.893447 4.472486 -14.622031 10.187227 -113.099286 88.414893 68.710433 7.961322 -23.918672 30.775357 -57.511859 14.732920 -2.028135 -4.032505 14.351071 -17.898803 
-42.108921 91.592583 -40.415321 90.170341 -2.126995 85.344402 170.598919 -0.322298 168.079932 -22.829311 2.034193 -6.709418 84.693915 4.011327 -2.747801 21.454550 0.003090 0.000001 170.844505 6.052995 -169.817750 -21.160551 -4.146586 2.923835 84.286481 0.030700 9.763176 21.454557 -0.003102 -0.000014 5.766115 -0.153151 0.061489 1.491703 -0.304254 0.122337 1.173584 -0.303347 0.124201 10.453480 0.236121 -1.509923 -24.886192 -4.907224 0.597056 -75.769467 -83.360943 -106.615250 7.638903 24.445478 -22.009012 -58.641798 -27.025981 2.893457 4.401521 -14.535997 10.368672 -113.421268 88.429278 68.387050 7.984728 -23.911147 30.884445 -57.728773 14.679849 -2.028137 -4.136024 14.268969 -18.013451 
-42.049400 91.582336 -40.639999 90.170347 -2.154531 85.321193 170.440076 -0.288893 167.950732 -22.798412 2.084735 -6.657382 84.671096 3.990574 -2.667014 21.454550 0.003095 0.000000 170.746642 6.090195 -169.755664 -21.010234 -4.121334 2.859875 84.256729 0.069688 9.724419 21.454560 -0.003111 -0.000018 5.766110 -0.153162 0.061496 1.491542 -0.304244 0.121318 1.173436 -0.303350 0.123251 10.381869 0.220324 -1.509924 -24.936679 -4.903468 0.603226 -75.896850 -83.332700 -106.490456 7.610076 24.412206 -22.146713 -58.743315 -26.970848 2.893460 4.380973 -14.525914 10.579822 -113.181958 88.399532 68.629263 7.964717 -23.943189 31.063031 -57.924553 14.610567 -2.028134 -4.284528 14.203231 -18.144667 
-41.992329 91.582497 -40.865059 90.170334 -2.186481 85.303865 170.308486 -0.259102 167.824510 -22.700718 2.130788 -6.600970 84.608729 3.967484 -2.581081 21.454551 0.003093 -0.000001 170.684761 6.131188 -169.767972 -20.791690 -4.029383 2.837577 84.189001 0.077203 9.666243 21.454558 -0.003112 -0.000017 5.766117 -0.153144 0.061483 1.496628 -0.307120 0.120087 1.178515 -0.306233 0.122048 10.305900 0.215087 -1.524383 -25.060495 -4.810173 0.551964 -76.012089 -83.271098 -106.381023 7.592412 24.398511 -22.252615 -58.853363 -26.914263 2.893455 4.366788 -14.567101 10.678439 -113.077641 88.334816 68.737610 7.912713 -24.013883 31.227123 -58.064934 14.544285 -2.028141 -4.305291 14.227281 -18.227287 
-41.941051 91.588997 -41.090809 90.170341 -2.223840 85.289440 170.193930 -0.227902 167.729775 -22.555127 2.161131 -6.557972 84.509569 3.953319 -2.495634 21.454553 0.003092 -0.000001 170.632988 6.171499 -169.792588 -20.543309 -3.925083 2.824024 84.101663 0.074483 9.601188 21.454558 -0.003101 -0.000017 5.766117 -0.159983 0.061481 1.502693 -0.320821 0.118950 1.184590 -0.319903 0.120975 10.276318 0.223746 -1.588836 -25.274965 -4.680239 0.436728 -75.986483 -83.237951 -106.410051 7.618195 24.414620 -22.316569 -58.949464 -26.869694 2.893455 4.347628 -14.628372 10.646701 -113.022794 88.233757 68.799642 7.852384 -24.118899 31.315564 -58.146193 14.508066 -2.028134 -4.209696 14.310220 -18.234500 
-41.896149 91.596718 -41.317692 90.165115 -2.268813 85.266859 170.061383 -0.198583 167.730868 -22.430729 2.172063 -6.573780 84.401979 3.975446 -2.431238 21.454551 0.003087 -0.000001 170.571079 6.201608 -169.830017 -20.295576 -3.820437 2.814056 84.006081 0.067573 9.533422 21.454562 -0.003106 -0.000015 5.766106 -0.169000 0.061491 1.508784 -0.338814 0.118288 1.190673 -0.337916 0.120373 10.273001 0.190798 -1.674702 -25.481226 -4.510308 0.274135 -76.081716 -83.187271 -106.319872 7.671376 24.451755 -22.353152 -59.033345 -26.858469 2.893447 4.307808 -14.606710 10.590821 -113.409404 88.161336 68.417151 7.804518 -24.265717 31.283147 -58.133536 14.512376 -2.028137 -4.195909 14.508302 -18.215592 
-41.857361 91.605339 -41.545799 90.159098 -2.322977 85.223474 169.916597 -0.178689 167.749023 -22.316624 2.172585 -6.609544 84.287512 4.009429 -2.376496 21.454557 0.003099 0.000003 170.489185 6.221604 -169.901065 -20.058705 -3.714624 2.812013 83.903724 0.062174 9.464216 21.454557 -0.003117 -0.000017 5.766107 -0.180247 0.061489 1.514441 -0.361268 0.118434 1.196336 -0.360418 0.120614 10.270168 0.112889 -1.786455 -25.628839 -4.329556 0.069977 -76.272326 -83.130533 -106.134446 7.764927 24.521255 -22.358151 -59.111182 -26.874262 2.893459 4.294052 -14.583349 10.615070 -114.487774 88.124030 67.338644 7.777471 -24.472168 31.276229 -58.105034 14.497553 -2.028124 -4.234343 14.575018 -18.203465 
